<svg width="current" height="current" viewBox="0 0 1081 1081" fill="none" xmlns="http://www.w3.org/2000/svg">
<g clip-path="url(#clip0_1607_4517)">
<rect width="1080" height="1080" transform="translate(0.0273438 0.688477)" fill="#FFFBFB"/>
<path d="M154.283 159.423H138.987V140.779C144.651 137.265 148.041 132.015 148.082 125.525C148.041 113.33 136.011 105.31 119.723 105.269C103.353 105.31 91.4475 113.33 91.4475 125.525C91.4475 132.139 94.9613 137.472 100.79 140.986V159.423H85.412V168.104H154.283V159.423ZM101.865 125.525C101.865 117.96 108.934 113.578 119.723 113.619C130.347 113.578 137.623 117.96 137.664 125.525C137.623 132.883 130.347 137.431 119.723 137.431C108.934 137.431 101.865 132.883 101.865 125.525ZM111.208 159.423V144.83C113.853 145.326 116.706 145.616 119.723 145.616C122.741 145.616 125.635 145.326 128.322 144.789V159.423H111.208ZM221.004 104.608H164.866V112.958H185.246C183.551 118.373 175.82 123.499 161.641 124.698L165.114 133.049C179.417 131.685 188.842 126.393 192.811 119.076C196.862 126.352 206.411 131.726 220.59 133.049L224.311 124.698C209.76 123.499 202.112 118.332 200.417 112.958H221.004V104.608ZM158.582 144.128H227.205V135.86H158.582V144.128ZM166.519 176.041H219.02V149.75H166.519V176.041ZM176.937 167.608V158.1H208.685V167.608H176.937ZM272.678 103.863C261.061 103.822 252.422 111.015 252.422 121.06C252.422 131.023 261.061 138.133 272.678 138.175C284.129 138.133 292.727 131.023 292.768 121.06C292.727 111.015 284.129 103.822 272.678 103.863ZM262.674 121.06C262.591 115.645 266.89 112.462 272.678 112.462C278.382 112.462 282.558 115.645 282.599 121.06C282.558 126.435 278.382 129.618 272.678 129.659C266.849 129.618 262.591 126.435 262.674 121.06ZM263.748 150.576H303.765V155.206H263.914V176.041H316.332V167.774H274.249V162.896H314.265V142.474H263.748V150.576ZM303.682 139.332H314.265V101.631H303.682V139.332ZM367.013 105.186H326.005V113.454H341.3C340.639 121.557 334.934 129.576 323.111 132.966L328.237 141.151C337.373 138.63 343.533 133.09 346.881 126.021C350.312 132.263 356.265 137.224 364.781 139.498L369.742 131.395C358.249 128.171 352.751 120.895 352.131 113.454H367.013V105.186ZM334.19 151.073H373.627V155.537H334.355V176.124H386.277V168.104H344.69V162.978H384.128V143.135H334.19V151.073ZM373.545 140.242H384.128V124.946H394.297V116.513H384.128V101.631H373.545V140.242ZM461.018 101.631H450.518V128.75H438.364V137.348H450.518V177.033H461.018V101.631ZM400.084 116.43H423.896V127.757H400.25V159.506H406.451C419.059 159.547 429.27 159.134 440.431 157.273L439.604 148.675C429.89 150.37 421.126 150.742 410.75 150.825V136.108H434.148V107.915H400.084V116.43ZM528.814 108.741H492.684V158.514H528.814V108.741ZM503.101 150.163V117.009H518.314V150.163H503.101ZM539.066 176.868H549.649V138.754H560.728V129.99H549.649V101.631H539.066V176.868ZM596.941 110.064H567.342V118.497H586.606C586.358 121.598 585.945 124.533 585.242 127.344L563.621 128.501L564.779 137.431L582.307 135.653C578.752 142.929 572.757 149.171 563.208 154.71L569.078 161.903C580.57 155.33 587.598 147.517 591.691 138.588H602.811V173.561H612.649V103.285H602.811V130.072H594.708C596.321 123.83 596.941 117.175 596.941 110.064ZM618.768 176.868H628.689V101.631H618.768V176.868ZM700.123 101.631H689.705V128.171H676.477V136.687H689.705V177.033H700.123V101.631ZM640.099 160.002H646.051C658.949 159.96 668.788 159.588 679.784 157.935L678.709 149.502C669.408 150.949 661.057 151.321 650.599 151.403V137.183H672.508V128.915H650.599V116.43H675.237V107.915H640.099V160.002ZM734.186 106.674C722.322 106.633 713.227 114.322 713.269 125.112C713.227 135.942 722.322 143.59 734.186 143.632C746.133 143.59 754.98 135.942 755.021 125.112C754.98 114.322 746.133 106.633 734.186 106.674ZM710.127 153.057L711.367 161.655C724.513 161.655 742.371 161.531 759.072 158.266L758.245 150.659C742.165 152.933 723.562 153.098 710.127 153.057ZM723.769 125.112C723.727 119.242 728.233 115.769 734.186 115.769C740.18 115.769 744.728 119.242 744.769 125.112C744.728 131.064 740.18 134.496 734.186 134.454C728.233 134.496 723.727 131.064 723.769 125.112ZM762.545 177.033H773.045V101.631H762.545V177.033ZM148.33 202.631H137.747V277.868H148.33V202.631ZM85.8254 255.71L91.4475 263.813C100.211 260.134 106.371 252.445 109.719 243.309C113.15 251.949 119.269 259.142 127.826 262.655L133.531 254.553C121.005 249.386 114.845 237.108 114.845 226.194V223.301H130.471V214.867H114.763V204.285H104.263V214.867H88.3057V223.301H104.345V226.194C104.304 237.645 98.1857 250.295 85.8254 255.71ZM219.929 241.49H177.433V232.891H217.614V224.623H177.433V216.686H219.35V208.171H166.684V249.84H219.929V241.49ZM158.582 269.104H227.453V260.506H158.582V269.104ZM272.843 209.824H236.878V218.257H262.302C261.971 221.812 261.433 225.202 260.524 228.344L232.992 229.998L234.315 238.927L257.134 236.901C252.587 245.334 244.815 252.362 232.413 258.521L237.953 266.624C266.394 252.693 272.76 232.974 272.843 209.824ZM284.335 277.868H295.001V202.631H284.335V277.868Z" fill="#4417F6"/>
<path d="M121.434 906.3H103.183V910.258H116.575C116.421 912.347 116.091 914.304 115.585 916.173L101.116 917.074L101.732 921.296L114.112 920.131C111.803 924.836 107.691 928.816 100.809 932.203L103.491 935.897C118.136 928.618 121.412 918.306 121.434 906.3ZM127.019 942.054H131.901V921.956H137.794V917.954H131.901V902.386H127.019V942.054ZM172.888 902.386H167.962V942.142H172.888V902.386ZM139.597 928.728L140.081 932.73C147.403 932.73 156.704 932.576 165.236 931.191L164.972 927.541C163.169 927.761 161.278 927.937 159.387 928.091V910.258H163.213V906.256H140.652V910.258H144.522V928.684C142.785 928.706 141.136 928.728 139.597 928.728ZM149.228 928.596V910.258H154.593V928.377C152.79 928.486 150.987 928.552 149.228 928.596ZM203.54 913.688V910.346H211.852V906.3H189.995V910.346H198.659V913.688C198.637 920.307 194.789 927.739 188.456 930.751L191.315 934.577C195.888 932.379 199.363 927.717 201.166 922.264C202.947 927.233 206.267 931.499 210.753 933.61L213.479 929.74C207.213 926.815 203.518 919.823 203.54 913.688ZM215.546 942.142H220.428V921.956H226.541V917.866H220.428V902.386H215.546V942.142ZM264.493 921.428H248.749V917.646H260.316V913.776H237.535V908.015H260.096V904.189H232.654V917.646H243.956V921.428H228.212V925.342H264.493V921.428ZM232.434 934.885C232.434 939.503 237.645 942.12 246.287 942.142C254.862 942.12 260.03 939.503 260.052 934.885C260.03 930.224 254.862 927.607 246.287 927.629C237.645 927.607 232.434 930.224 232.434 934.885ZM237.403 934.885C237.381 932.598 240.504 931.367 246.287 931.367C251.982 931.367 255.126 932.598 255.17 934.885C255.126 937.194 251.982 938.381 246.287 938.359C240.504 938.381 237.381 937.194 237.403 934.885ZM290.22 909.774V904.849H285.515V909.774C285.493 914.172 282.942 919.141 277.467 921.56L280.105 925.298C283.888 923.715 286.482 920.68 287.934 917.14C289.363 920.219 291.826 922.769 295.366 924.111L297.96 920.373C292.749 918.394 290.242 914.062 290.22 909.774ZM284.767 934.753C284.745 939.349 290.022 942.098 298.4 942.098C306.712 942.098 312.011 939.349 312.033 934.753C312.011 930.18 306.712 927.453 298.4 927.453C290.022 927.453 284.745 930.18 284.767 934.753ZM289.649 934.753C289.627 932.422 292.881 931.147 298.4 931.147C303.831 931.147 307.086 932.422 307.108 934.753C307.086 937.106 303.831 938.381 298.4 938.359C292.881 938.381 289.627 937.106 289.649 934.753ZM298.62 925.562H303.194V916.459H307.152V926.793H311.813V902.43H307.152V912.457H303.194V903.177H298.62V925.562ZM331.295 908.103V904.541H326.37V908.323C326.348 914.062 323.05 919.361 316.475 921.516L319.07 925.474C323.885 923.781 327.206 920.373 328.965 916.041C330.658 919.801 333.692 922.703 338.024 924.243L340.663 920.417C334.44 918.46 331.273 913.512 331.295 908.103ZM323.072 934.489C323.028 939.327 328.195 942.098 336.573 942.098C344.995 942.098 350.14 939.327 350.162 934.489C350.14 929.652 344.995 926.815 336.573 926.837C328.195 926.815 323.028 929.652 323.072 934.489ZM327.909 934.489C327.887 931.983 331.054 930.641 336.573 930.619C342.136 930.641 345.28 931.983 345.28 934.489C345.28 936.908 342.136 938.25 336.573 938.272C331.054 938.25 327.887 936.908 327.909 934.489ZM337.232 914.084H345.148V925.782H350.03V902.386H345.148V910.082H337.232V914.084ZM391.941 925.518H355.615V929.388H371.271V942.142H376.109V929.388H391.941V925.518ZM360.013 921.384H387.543V903.969H382.617V908.85H364.85V903.969H360.013V921.384ZM364.85 917.426V912.721H382.617V917.426H364.85ZM427.914 902.386H423.077V916.766H415.601V920.724H423.077V942.186H427.914V902.386ZM396.382 933.038H399.505C406.607 932.994 411.709 932.774 417.492 931.895L417.008 927.937C411.885 928.75 407.355 928.97 401.308 928.992V920.812H413.402V916.942H401.308V909.818H414.985V905.816H396.382V933.038ZM137.046 976.264H100.721V980.178H116.86V987.478H121.698V980.178H137.046V976.264ZM105.118 995.35H133.044V991.392H110V983.828H105.118V995.35ZM105.338 972.57H132.385V958.189H105.338V972.57ZM110.088 968.743V962.015H127.547V968.743H110.088ZM153.934 967.688V964.346H162.245V960.3H140.389V964.346H149.052V967.688C149.03 974.307 145.182 981.739 138.849 984.751L141.708 988.577C146.282 986.379 149.756 981.717 151.559 976.264C153.34 981.233 156.66 985.499 161.146 987.61L163.873 983.74C157.606 980.815 153.912 973.823 153.934 967.688ZM165.94 996.142H170.821V975.956H176.934V971.866H170.821V956.386H165.94V996.142ZM223.594 956.386H218.889V996.142H223.594V956.386ZM189.687 973.581C189.687 982.355 193.074 987.808 198.263 987.786C201.627 987.808 204.266 985.565 205.717 981.673H210.929V994.207H215.546V957.089H210.929V965.489H205.717C204.244 961.619 201.627 959.398 198.263 959.42C193.074 959.398 189.687 964.829 189.687 973.581ZM194.173 973.581C194.129 967.38 195.646 964.016 198.263 964.038C200.902 964.016 202.529 967.38 202.529 973.581C202.529 979.804 200.902 983.146 198.263 983.124C195.646 983.146 194.129 979.804 194.173 973.581ZM206.707 969.447H210.929V977.671H206.729C206.905 976.396 207.015 975.032 207.015 973.581C207.015 972.108 206.905 970.722 206.707 969.447ZM264.977 961.927H259.568V956.386H254.686V979.87H259.568V974.549H264.977V970.459H259.568V965.885H264.977V961.927ZM228.652 968.216C228.63 973.889 233.247 977.825 239.382 977.847C245.495 977.825 250.069 973.889 250.113 968.216C250.069 962.631 245.495 958.629 239.382 958.673C233.247 958.629 228.63 962.631 228.652 968.216ZM233.093 985.543H254.686V996.142H259.568V981.585H233.093V985.543ZM233.445 968.216C233.423 964.895 235.952 962.828 239.382 962.806C242.768 962.828 245.297 964.895 245.319 968.216C245.297 971.602 242.768 973.691 239.382 973.669C235.952 973.691 233.423 971.602 233.445 968.216ZM284.02 958.145H279.182V975.472H298.136V958.145H293.299V963.202H284.02V958.145ZM283.184 982.157H304.293V985.191H283.228V995.79H310.406V991.92H288.065V988.753H309.175V978.331H283.184V982.157ZM284.02 971.602V966.896H293.299V971.602H284.02ZM304.293 976.747H309.175V968.392H314.716V964.434H309.175V956.386H304.293V976.747ZM337.232 970.415H332.395V975.604H316.739V979.518H352.976V975.604H337.232V970.415ZM318.718 968.831L320.477 972.657C327.03 971.668 332.219 968.699 334.77 964.544C337.298 968.721 342.51 971.668 349.018 972.657L350.91 968.831C342.62 967.798 337.276 963.4 337.276 958.541V957.045H332.307V958.541C332.307 963.29 326.92 967.798 318.718 968.831ZM320.961 989.105C320.961 993.613 326.128 996.098 334.814 996.098C343.433 996.098 348.557 993.613 348.579 989.105C348.557 984.641 343.433 982.091 334.814 982.113C326.128 982.091 320.961 984.641 320.961 989.105ZM325.93 989.105C325.908 986.928 328.965 985.851 334.814 985.851C340.553 985.851 343.653 986.928 343.697 989.105C343.653 991.282 340.553 992.403 334.814 992.403C328.965 992.403 325.908 991.282 325.93 989.105ZM387.367 956.386H382.441V996.142H387.367V976.308H392.864V972.262H387.367V956.386ZM355.087 984.751L358.913 987.522C366.082 979.76 367.555 970.986 367.577 960.564H356.671V964.566H362.915C362.52 972.504 360.673 978.814 355.087 984.751ZM366.346 987.39L370.26 990.073C377.428 981.453 378.549 971.25 378.571 960.564H368.896V964.566H373.932C373.624 973.185 372.019 980.617 366.346 987.39ZM409.576 967.688V964.346H418.283V960.3H395.855V964.346H404.606V967.688C404.584 974.439 400.67 981.849 394.403 984.751L397.218 988.577C401.858 986.379 405.354 981.805 407.179 976.352C409.004 981.409 412.434 985.565 417.14 987.61L419.822 983.74C413.402 981.057 409.576 974.197 409.576 967.688ZM422.725 996.142H427.65V956.386H422.725V996.142Z" fill="#1C076D"/>
<path d="M150.07 384.179C150.07 385.281 149.519 385.832 148.417 385.832L119.337 385.832L90.2566 385.832C89.1547 385.832 88.6037 385.281 88.6037 384.179L88.6037 366.049L88.6037 347.919C88.6037 346.817 89.1547 346.266 90.2566 346.266L119.337 346.266L148.417 346.266C149.519 346.266 150.07 346.817 150.07 347.919L150.07 366.049L150.07 384.179ZM156.682 354.841C156.682 352.981 156.303 351.294 155.545 349.779L151.517 342.754C149.726 339.792 147.006 338.312 143.355 338.312L95.0086 338.312C86.331 338.312 81.9922 342.582 81.9922 351.122L81.9922 377.258C81.9922 379.117 82.371 380.805 83.1285 382.32L87.1574 389.344C88.9481 392.306 91.6684 393.787 95.3186 393.787L143.665 393.787C152.343 393.787 156.682 389.517 156.682 380.977L156.682 354.841Z" fill="#5549FF"/>
<path d="M155.545 349.779C156.303 351.294 156.682 352.981 156.682 354.841L156.682 380.977C156.682 389.517 152.343 393.787 143.665 393.787L94.2466 393.787C92.8307 393.687 89.5413 392.819 87.7109 390.138L145.754 390.138C148.233 389.853 153.19 387.623 153.19 380.977L153.19 345.671L155.545 349.779Z" fill="url(#paint0_radial_1607_4517)"/>
<path d="M148.417 386.056C149.003 386.056 149.484 385.91 149.816 385.577C150.149 385.244 150.295 384.764 150.295 384.178L150.295 366.048L150.295 347.918C150.295 347.332 150.149 346.852 149.816 346.519C149.484 346.187 149.003 346.04 148.417 346.04L119.337 346.04L90.2564 346.04C89.6707 346.04 89.1901 346.187 88.8575 346.519C88.5249 346.852 88.3783 347.332 88.3783 347.918L88.3783 366.048L88.3783 384.178C88.3784 384.764 88.5249 385.244 88.8575 385.577C89.1901 385.91 89.6707 386.056 90.2564 386.056L119.337 386.056L148.417 386.056Z" stroke="#5549FF" stroke-width="0.450331"/>
<path d="M91.5243 385.914H91.0587C90.7879 385.914 90.5227 385.89 90.2647 385.846C90.0114 385.819 89.7612 385.782 89.5489 385.733C89.387 385.695 89.2514 385.61 89.1388 385.496C87.5505 384.768 86.4473 383.164 86.4473 381.302V346.498C86.4473 344.97 87.686 343.731 89.2141 343.731H147.272C148.8 343.731 150.039 344.97 150.039 346.498V347.555C149.989 347.145 149.672 346.325 148.809 346.325H89.7438C89.3805 346.393 88.6538 346.706 88.6538 347.415V384.313C88.682 384.619 88.8167 385.172 89.1388 385.496C89.4923 385.658 89.8699 385.777 90.2647 385.846C90.757 385.898 91.2615 385.914 91.5243 385.914Z" fill="url(#paint1_radial_1607_4517)"/>
<path d="M175.096 383.237V346.407L183.536 337.967H206.555H214.688V340.688L208.856 343.185H203.946H182.728C181.734 343.185 180.927 343.991 180.927 344.986V348.326V384.659C180.927 385.654 181.734 386.46 182.728 386.46H186.145H203.946H208.856H214.688V388.148L206.555 391.678H183.536L175.096 383.237Z" fill="#4417F6"/>
<path d="M226.37 391.678C221.708 391.678 217.93 387.899 217.93 383.237V346.407L226.37 337.967H250.616C255.278 337.967 259.056 341.746 259.056 346.407V383.237L250.616 391.678H226.37ZM248.007 386.46H252.333L253.225 348.326V343.185H223.761V348.326V386.46H228.979H248.007Z" fill="#4417F6"/>
<path d="M265.992 337.967H270.892L271.824 339.801L296.684 337.967L303.743 345.026V362.29L296.607 369.426H271.824V391.678H265.992V337.967ZM294.152 364.362C296.271 364.362 297.988 362.644 297.988 360.526V346.791C297.988 344.715 296.305 343.031 294.228 343.031H271.824V364.362H294.152Z" fill="#4417F6"/>
<path d="M325.432 369.273L306.787 337.967H313.079L328.233 363.912C328.256 363.953 328.3 363.978 328.348 363.978C328.395 363.978 328.439 363.953 328.463 363.912L343.617 337.967H349.909L331.264 369.273V391.678H325.432V369.273Z" fill="#4417F6"/>
<path d="M369.612 340.182L353.346 343.108V337.967H391.71V343.108L375.444 340.182V391.678H369.612V340.182Z" fill="#4417F6"/>
<path d="M-25.5742 851.278L1129.1 131.034" stroke="#C1B9E2" stroke-width="2"/>
</g>
<defs>
<radialGradient id="paint0_radial_1607_4517" cx="0" cy="0" r="1" gradientUnits="userSpaceOnUse" gradientTransform="translate(149.365 389.604) rotate(174.369) scale(56.3745 47.575)">
<stop stop-color="#2C1975"/>
<stop offset="1" stop-color="#4518F7" stop-opacity="0"/>
</radialGradient>
<radialGradient id="paint1_radial_1607_4517" cx="0" cy="0" r="1" gradientUnits="userSpaceOnUse" gradientTransform="translate(92.2757 348.909) rotate(79.9354) scale(46.3459 68.7635)">
<stop stop-color="#1F009B"/>
<stop offset="1" stop-color="#4518F7" stop-opacity="0.13"/>
</radialGradient>
<clipPath id="clip0_1607_4517">
<rect width="1080" height="1080" fill="white" transform="translate(0.0273438 0.688477)"/>
</clipPath>
</defs>
</svg>
