<svg width="current" height="current" viewBox="0 0 240 48" fill="none" xmlns="http://www.w3.org/2000/svg">
<path fill-rule="evenodd" clip-rule="evenodd" d="M5.98752 1.5C2.68071 1.5 0 4.1807 0 7.48752V39.9199C0 43.2267 2.68071 45.9074 5.98752 45.9074H41.7241C45.031 45.9074 47.7117 43.2267 47.7117 39.9199V7.48752C47.7117 4.1807 45.031 1.5 41.7241 1.5H5.98752ZM34.4682 7.3583C34.3228 7.10871 34.056 6.95521 33.7675 6.95508C33.4789 6.95495 33.212 7.10822 33.0664 7.35769L24.7641 21.5754C24.6173 21.8268 24.616 22.1378 24.7607 22.3905C24.9054 22.6432 25.174 22.7991 25.4649 22.7991H42.0526C42.3433 22.7991 42.6118 22.6433 42.7566 22.3908C42.9013 22.1383 42.9002 21.8275 42.7537 21.576L34.4682 7.3583ZM10.0215 7.43692C9.4062 6.82631 8.41394 6.8286 7.80149 7.44206L6.76372 8.48156C6.46745 8.77832 6.30159 9.18117 6.30288 9.60084C6.30418 10.0205 6.47252 10.4223 6.7706 10.7172L11.094 14.9947L6.7706 19.2721C6.47094 19.5686 6.30246 19.973 6.30288 20.3949C6.30329 20.8168 6.47256 21.2209 6.7728 21.5168L7.81057 22.5395C8.42375 23.1438 9.40774 23.1428 10.0197 22.5374L14.3708 18.2326L18.7218 22.5374C19.3338 23.1428 20.3178 23.1438 20.9309 22.5395L21.9687 21.5168C22.2689 21.2209 22.4382 20.8168 22.4386 20.3949C22.439 19.973 22.2706 19.5686 21.9709 19.2721L17.6475 14.9947L21.9709 10.7172C22.269 10.4223 22.4373 10.0205 22.4386 9.60084C22.4399 9.18117 22.2741 8.77832 21.9778 8.48156L20.94 7.44206C20.3276 6.8286 19.3353 6.82631 18.72 7.43692L14.3708 11.7533L10.0215 7.43692ZM25.7991 25.0922C25.4154 25.0922 25.1044 25.4038 25.1044 25.788V39.6872C25.1044 40.0714 25.4154 40.3829 25.7991 40.3829H41.7172C42.1009 40.3829 42.4119 40.0714 42.4119 39.6872V25.788C42.4119 25.4038 42.1009 25.0922 41.7172 25.0922H25.7991ZM13.8652 24.1533C9.26611 24.1533 5.53784 27.8878 5.53784 32.4945C5.53784 37.1012 9.26611 40.8356 13.8652 40.8356H14.0493C18.6483 40.8356 22.3766 37.1012 22.3766 32.4945C22.3766 27.8878 18.6483 24.1533 14.0493 24.1533H13.8652Z" fill="#1C6EE9"/>
<path d="M89.1887 36.7074V40.6087H56.6083V36.7074H70.9324V26.6921H74.7897V36.7074H89.1887ZM65.7083 25.7355C63.2449 27.4867 60.3031 28.4363 57.2823 28.4552V24.5164C59.702 24.4773 62.0427 23.6477 63.9482 22.1534C66.2011 20.4145 68.0585 18.215 69.397 15.7014C70.941 12.9063 71.9984 9.86816 72.524 6.71742L76.4187 7.46769C75.9748 10.0479 75.2268 12.5662 74.1905 14.9699L88.4772 25.2291L86.4175 28.5488L72.524 18.2896C70.8237 21.2415 68.497 23.7833 65.7083 25.7355Z" fill="#010A1A"/>
<path fill-rule="evenodd" clip-rule="evenodd" d="M72.1685 6.20536C72.3063 6.10941 72.4768 6.07321 72.6416 6.10495L76.5363 6.85521C76.8694 6.91938 77.0899 7.23879 77.0323 7.57362C76.6085 10.037 75.9126 12.4451 74.9579 14.7536L88.84 24.7222C89.1065 24.9136 89.1792 25.2793 89.0061 25.5583L86.9464 28.8781C86.8547 29.0258 86.7055 29.1285 86.535 29.1613C86.3644 29.1942 86.1878 29.1541 86.048 29.0509L72.707 19.1996C70.9984 21.9757 68.7393 24.3742 66.0669 26.2454C63.4996 28.0699 60.434 29.0592 57.2862 29.0789C57.1204 29.0799 56.961 29.0147 56.8434 28.8976C56.7258 28.7805 56.6597 28.6213 56.6597 28.4552V24.5164C56.6597 24.1758 56.9324 23.8982 57.2723 23.8927C59.5563 23.8559 61.7658 23.0728 63.5644 21.6623L63.5682 21.6593C65.751 19.9745 67.5507 17.8434 68.8476 15.4079L68.8522 15.3994C70.3619 12.6663 71.3959 9.69552 71.9099 6.61464C71.9375 6.44888 72.0308 6.30131 72.1685 6.20536ZM73.026 7.44927C72.458 10.4435 71.4181 13.3297 69.9442 15.9991C68.5646 18.5884 66.6509 20.8543 64.3301 22.646C62.4794 24.0967 60.2402 24.9538 57.905 25.114V27.8136C60.5766 27.6778 63.1594 26.7827 65.348 25.2269L65.3516 25.2243C68.0656 23.3243 70.3299 20.8507 71.9847 17.9779C72.0733 17.8242 72.2231 17.7155 72.3966 17.6791C72.5701 17.6428 72.7508 17.6823 72.8935 17.7876L86.2444 27.6462L87.6407 25.3958L73.8277 15.4768C73.5897 15.3059 73.5027 14.9919 73.6188 14.7226C74.5549 12.5515 75.2512 10.285 75.6957 7.96354L73.026 7.44927ZM70.3098 26.6921C70.3098 26.3476 70.5885 26.0684 70.9324 26.0684H74.7897C75.1336 26.0684 75.4123 26.3476 75.4123 26.6921V36.0837H89.1887C89.5326 36.0837 89.8114 36.363 89.8114 36.7074V40.6087C89.8114 40.9532 89.5326 41.2324 89.1887 41.2324H56.6083C56.2644 41.2324 55.9856 40.9532 55.9856 40.6087V36.7074C55.9856 36.363 56.2644 36.0837 56.6083 36.0837H70.3098V26.6921ZM71.5551 27.3158V36.7074C71.5551 37.0519 71.2763 37.3311 70.9324 37.3311H57.2309V39.985H88.566V37.3311H74.7897C74.4458 37.3311 74.167 37.0519 74.167 36.7074V27.3158H71.5551Z" fill="#010A1A"/>
<path d="M98.7378 22.6787C96.8287 23.9933 94.6446 24.8531 92.3527 25.1921V21.441C94.3324 21.0602 96.1709 20.1458 97.6705 18.7964C99.2253 17.3795 100.43 15.6203 101.191 13.6574C102.027 11.5059 102.447 9.21435 102.426 6.90545L106.171 7.14928C106.194 9.62154 105.782 12.0785 104.954 14.4076L115.271 21.6848L113.399 24.7417L103.456 17.6711C102.269 19.6669 100.658 21.3765 98.7378 22.6787ZM94.6371 27.9491H122.293V41.8655H94.6371V27.9491ZM98.382 38.3958H118.511V31.4751H98.4194L98.382 38.3958ZM122.256 6.51143V25.9421H118.511V6.51143H122.256Z" fill="#010A1A"/>
<path fill-rule="evenodd" clip-rule="evenodd" d="M117.888 6.51143C117.888 6.16697 118.167 5.88773 118.511 5.88773H122.256C122.599 5.88773 122.878 6.16697 122.878 6.51143V25.9421C122.878 26.2866 122.599 26.5658 122.256 26.5658H118.511C118.167 26.5658 117.888 26.2866 117.888 25.9421V6.51143ZM119.133 7.13513V25.3184H121.633V7.13513H119.133ZM101.999 6.45225C102.124 6.33312 102.294 6.27182 102.467 6.28307L106.212 6.5269C106.537 6.54808 106.791 6.81701 106.794 7.14354C106.816 9.53051 106.444 11.9036 105.695 14.1674L115.63 21.1748C115.899 21.3644 115.974 21.7304 115.802 22.011L113.93 25.0679C113.84 25.2151 113.693 25.3182 113.524 25.3528C113.355 25.3874 113.179 25.3502 113.039 25.2503L103.635 18.5628C102.443 20.3919 100.898 21.9668 99.0887 23.1939C97.1018 24.5617 94.8288 25.4564 92.4437 25.8091C92.2646 25.8355 92.0829 25.7827 91.9459 25.6642C91.8088 25.5457 91.7301 25.3734 91.7301 25.1921V21.441C91.7301 21.1418 91.9421 20.8849 92.2353 20.8284C94.1031 20.4692 95.8379 19.6066 97.253 18.3337C98.7357 16.982 99.8849 15.304 100.61 13.4318L100.61 13.431C101.419 11.3534 101.824 9.14056 101.804 6.91099C101.802 6.73759 101.873 6.57138 101.999 6.45225ZM103.043 7.57062C102.985 9.73087 102.555 11.8666 101.771 13.8834C100.976 15.9361 99.7155 17.7759 98.0895 19.2577L98.0866 19.2603C96.6312 20.5701 94.8734 21.4918 92.9754 21.9447V24.4513C94.9124 24.0654 96.7534 23.2883 98.385 22.1647L98.3887 22.1621C100.234 20.9112 101.781 19.2691 102.921 17.3519C103.01 17.2023 103.158 17.0968 103.328 17.0608C103.498 17.0249 103.675 17.0617 103.817 17.1625L113.216 23.847L114.435 21.8577L104.596 14.9176C104.367 14.7564 104.274 14.4623 104.368 14.1985C105.106 12.1201 105.504 9.93682 105.546 7.73357L103.043 7.57062ZM94.0144 27.9491C94.0144 27.6046 94.2932 27.3254 94.6371 27.3254H122.293C122.637 27.3254 122.916 27.6046 122.916 27.9491V41.8655C122.916 42.2099 122.637 42.4892 122.293 42.4892H94.6371C94.2932 42.4892 94.0144 42.2099 94.0144 41.8655V27.9491ZM95.2598 28.5728V41.2418H121.67V28.5728H95.2598ZM97.7968 31.4717C97.7986 31.1286 98.0769 30.8514 98.4194 30.8514H118.511C118.855 30.8514 119.133 31.1306 119.133 31.4751V38.3958C119.133 38.7402 118.855 39.0195 118.511 39.0195H98.382C98.2163 39.0195 98.0574 38.9533 97.9405 38.8356C97.8236 38.7179 97.7584 38.5584 97.7593 38.3924L97.7968 31.4717ZM99.0387 32.0988L99.008 37.7721H117.888V32.0988H99.0387Z" fill="#010A1A"/>
<path d="M149.144 13.3382H126.993V9.94358H136.149V5.92988H139.894V9.94358H149.069L149.144 13.3382ZM133.116 29.1492C131.746 28.6582 130.549 27.7782 129.671 26.617C128.842 25.4714 128.396 24.093 128.396 22.6784C128.396 21.2638 128.842 19.8854 129.671 18.7398C130.549 17.5786 131.746 16.6988 133.116 16.2079C134.694 15.6086 136.372 15.3159 138.059 15.3452C139.741 15.3136 141.413 15.6065 142.984 16.2079C144.345 16.704 145.54 17.5751 146.429 18.721C147.245 19.8789 147.682 21.2613 147.682 22.6784C147.682 24.0955 147.245 25.4779 146.429 26.6358C145.54 27.7817 144.345 28.653 142.984 29.1492C141.413 29.7506 139.741 30.0434 138.059 30.0119C136.372 30.0412 134.694 29.7485 133.116 29.1492ZM133.116 38.1705H157.458V41.9216H129.371V32.1125H133.116V38.1705ZM133.659 19.6963C133.155 20.0134 132.74 20.4533 132.451 20.9748C132.163 21.4963 132.012 22.0823 132.011 22.6784C132.005 23.2783 132.153 23.8696 132.442 24.3953C132.731 24.921 133.15 25.3632 133.659 25.6792C134.988 26.4285 136.487 26.8224 138.012 26.8224C139.537 26.8224 141.037 26.4285 142.366 25.6792C142.87 25.3596 143.285 24.9162 143.57 24.3909C143.855 23.8657 144.001 23.2762 143.995 22.6784C143.993 22.0848 143.843 21.5011 143.558 20.9803C143.274 20.4595 142.864 20.0182 142.366 19.6963C141.041 18.9345 139.54 18.5337 138.012 18.5337C136.485 18.5337 134.984 18.9345 133.659 19.6963ZM161.146 16.3578V20.334H156.559V33.4628H152.814V6.6426H156.559V16.4517L161.146 16.3578Z" fill="#010A1A"/>
<path fill-rule="evenodd" clip-rule="evenodd" d="M135.527 5.92988C135.527 5.58542 135.805 5.30618 136.149 5.30618H139.894C140.238 5.30618 140.517 5.58542 140.517 5.92988V9.31988H149.069C149.408 9.31988 149.684 9.5908 149.692 9.9298L149.767 13.3244C149.77 13.4922 149.706 13.6544 149.589 13.7743C149.472 13.8943 149.312 13.9619 149.144 13.9619H126.993C126.649 13.9619 126.37 13.6827 126.37 13.3382V9.94358C126.37 9.59912 126.649 9.31988 126.993 9.31988H135.527V5.92988ZM136.772 6.55358V9.94358C136.772 10.288 136.493 10.5673 136.149 10.5673H127.616V12.7145H148.507L148.46 10.5673H139.894C139.55 10.5673 139.272 10.288 139.272 9.94358V6.55358H136.772ZM152.191 6.6426C152.191 6.29814 152.47 6.0189 152.814 6.0189H156.559C156.903 6.0189 157.182 6.29814 157.182 6.6426V15.8151L161.134 15.7342C161.301 15.7308 161.463 15.795 161.582 15.9123C161.702 16.0296 161.769 16.1902 161.769 16.3578V20.334C161.769 20.6784 161.49 20.9577 161.146 20.9577H157.182V33.4628C157.182 33.8073 156.903 34.0865 156.559 34.0865H152.814C152.47 34.0865 152.191 33.8073 152.191 33.4628V6.6426ZM153.437 7.2663V32.8391H155.936V20.334C155.936 19.9895 156.215 19.7103 156.559 19.7103H160.524V16.9944L156.572 17.0753C156.404 17.0787 156.243 17.0145 156.123 16.8972C156.004 16.7799 155.936 16.6193 155.936 16.4517V7.2663H153.437ZM142.761 16.7905C141.265 16.2176 139.673 15.9387 138.071 15.9688C138.063 15.9689 138.056 15.9689 138.048 15.9688C136.44 15.9408 134.841 16.2198 133.337 16.791L133.326 16.7951C132.072 17.2445 130.976 18.0491 130.171 19.1111C129.422 20.1493 129.019 21.3975 129.019 22.6784C129.019 23.9593 129.422 25.2075 130.171 26.2457C130.976 27.3077 132.072 28.1126 133.326 28.562L133.337 28.566C134.841 29.1372 136.44 29.4162 138.048 29.3883C138.052 29.3882 138.056 29.3882 138.06 29.3882C138.063 29.3882 138.067 29.3882 138.071 29.3883C139.673 29.4183 141.265 29.1394 142.761 28.5666L142.771 28.5631C144.018 28.1087 145.112 27.312 145.928 26.2644C146.665 25.2141 147.06 23.962 147.06 22.6784C147.06 21.3949 146.665 20.1427 145.928 19.0924C145.112 18.0448 144.018 17.2483 142.771 16.794L142.761 16.7905ZM143.201 15.6235C141.561 14.996 139.815 14.6899 138.059 14.7214C136.298 14.6922 134.548 14.998 132.901 15.6226C131.42 16.1548 130.125 17.1069 129.174 18.3631L129.166 18.3739C128.261 19.626 127.774 21.1324 127.774 22.6784C127.774 24.2244 128.261 25.7308 129.166 26.9829L129.174 26.9937C130.125 28.2499 131.419 29.2022 132.901 29.7344C134.548 30.3591 136.298 30.6648 138.059 30.6357C139.815 30.6672 141.561 30.361 143.201 29.7336C144.671 29.197 145.96 28.2558 146.921 27.0186C146.924 27.0148 146.926 27.011 146.929 27.0072C146.932 27.0033 146.935 26.9993 146.938 26.9953C147.827 25.7322 148.305 24.2243 148.305 22.6784C148.305 21.1325 147.827 19.6246 146.938 18.3615C146.932 18.3536 146.927 18.3458 146.921 18.3382C145.96 17.1009 144.671 16.1601 143.201 15.6235ZM133.349 19.1554C134.768 18.3394 136.376 17.91 138.012 17.91C139.649 17.91 141.257 18.3394 142.676 19.1554C142.685 19.1608 142.694 19.1664 142.703 19.1722C143.289 19.5504 143.77 20.069 144.104 20.6809C144.438 21.2922 144.615 21.9772 144.617 22.6739C144.625 23.3773 144.452 24.0709 144.117 24.6889C143.781 25.3075 143.293 25.8298 142.699 26.2063C142.69 26.212 142.681 26.2175 142.671 26.2228C141.249 27.0246 139.645 27.4461 138.012 27.4461C136.38 27.4461 134.776 27.0246 133.354 26.2228C133.346 26.2184 133.338 26.214 133.331 26.2094C132.731 25.8368 132.237 25.3155 131.897 24.6959C131.557 24.077 131.382 23.381 131.389 22.6749C131.39 21.9744 131.568 21.2857 131.907 20.6728C132.246 20.0591 132.735 19.5414 133.328 19.1682C133.332 19.1657 133.336 19.1633 133.34 19.1609C133.343 19.1591 133.346 19.1572 133.349 19.1554ZM133.98 20.2309C133.57 20.4914 133.232 20.851 132.996 21.2768C132.759 21.7061 132.634 22.1885 132.634 22.6791V22.6848C132.629 23.1774 132.751 23.663 132.988 24.0947C133.223 24.5227 133.563 24.8833 133.976 25.1424C135.209 25.8348 136.599 26.1987 138.012 26.1987C139.425 26.1987 140.814 25.8353 142.046 25.1438C142.455 24.8816 142.791 24.5202 143.023 24.093C143.257 23.6612 143.377 23.1765 143.372 22.685L143.372 22.6806C143.37 22.1908 143.247 21.7093 143.012 21.2797C142.78 20.8546 142.446 20.4937 142.041 20.229C140.814 19.5268 139.426 19.1574 138.012 19.1574C136.598 19.1574 135.208 19.5275 133.98 20.2309ZM128.748 32.1125C128.748 31.768 129.027 31.4888 129.371 31.4888H133.116C133.46 31.4888 133.739 31.768 133.739 32.1125V37.5468H157.458C157.802 37.5468 158.08 37.826 158.08 38.1705V41.9216C158.08 42.266 157.802 42.5452 157.458 42.5452H129.371C129.027 42.5452 128.748 42.266 128.748 41.9216V32.1125ZM129.994 32.7362V41.2979H156.835V38.7942H133.116C132.772 38.7942 132.493 38.5149 132.493 38.1705V32.7362H129.994Z" fill="#010A1A"/>
<path d="M204.138 24.1418V27.4615H171.558V24.1418H185.919V19.9594H189.664V24.1418H204.138ZM187.137 16.3958C185.284 18.0082 183.115 19.2155 180.77 19.9406C178.211 20.7803 175.542 21.2353 172.85 21.2909V18.0275C175.664 17.9583 178.439 17.3604 181.032 16.2646C183.223 15.5068 185.039 13.9357 186.107 11.8756H173.468V8.64974H185.919V5.1237H189.777V8.64974H202.191V11.8756H190.114C189.929 12.5337 189.659 13.1644 189.309 13.7512L202.94 18.1962L201.948 21.2909L187.137 16.3958ZM198.259 31.7566C200.899 32.6756 202.228 34.2323 202.228 36.3704C202.228 38.5085 200.899 40.1214 198.259 41.003C194.884 42.0482 191.36 42.5236 187.829 42.4096C184.298 42.526 180.771 42.0441 177.4 40.9842C174.741 40.0277 173.43 38.5085 173.43 36.3704C173.43 34.2323 174.741 32.6194 177.381 31.7566C184.214 29.8815 191.426 29.8815 198.259 31.7566ZM195.3 38.5273C197.266 38.096 198.24 37.3832 198.24 36.3704C198.24 35.3576 197.266 34.6448 195.282 34.1947C190.33 33.2878 185.254 33.2878 180.302 34.1947C178.43 34.6448 177.344 35.3764 177.344 36.3704C177.344 37.3644 178.317 38.096 180.283 38.5273C185.238 39.4038 190.308 39.4038 195.263 38.5273H195.3Z" fill="#010A1A"/>
<path fill-rule="evenodd" clip-rule="evenodd" d="M185.297 5.1237C185.297 4.77924 185.576 4.5 185.919 4.5H189.777C190.121 4.5 190.399 4.77924 190.399 5.1237V8.02604H202.191C202.535 8.02604 202.814 8.30528 202.814 8.64974V11.8756C202.814 12.2201 202.535 12.4993 202.191 12.4993H190.572C190.468 12.8026 190.346 13.0995 190.208 13.3887L203.133 17.6032C203.459 17.7095 203.638 18.0599 203.533 18.387L202.54 21.4817C202.49 21.64 202.378 21.7714 202.23 21.8468C202.082 21.9222 201.91 21.9353 201.752 21.8832L187.274 17.0979C185.418 18.6505 183.272 19.8193 180.959 20.535C178.343 21.3928 175.615 21.8577 172.863 21.9145C172.695 21.9179 172.534 21.8538 172.414 21.7365C172.295 21.6191 172.227 21.4586 172.227 21.2909V18.0275C172.227 17.689 172.497 17.4123 172.835 17.404C175.57 17.3367 178.269 16.7554 180.79 15.6899C180.803 15.6845 180.816 15.6796 180.829 15.6751C182.532 15.0859 183.992 13.9687 185.007 12.4993H173.468C173.124 12.4993 172.845 12.2201 172.845 11.8756V8.64974C172.845 8.30528 173.124 8.02604 173.468 8.02604H185.297V5.1237ZM186.542 5.7474V8.64974C186.542 8.9942 186.263 9.27344 185.919 9.27344H174.09V11.2519H186.107C186.324 11.2519 186.526 11.3656 186.639 11.5518C186.752 11.7379 186.76 11.9696 186.659 12.163C185.521 14.3587 183.588 16.0347 181.255 16.8472C178.783 17.8896 176.149 18.4916 173.473 18.6281V20.6466C175.887 20.5389 178.277 20.1023 180.576 19.3479L180.587 19.3446C182.849 18.6452 184.941 17.4804 186.728 15.9249C186.894 15.7807 187.123 15.7346 187.332 15.8035L201.547 20.5016L202.157 18.597L189.116 14.3442C188.936 14.2855 188.792 14.1478 188.726 13.9702C188.659 13.7925 188.677 13.5942 188.774 13.4313C189.096 12.8919 189.345 12.3121 189.514 11.7071C189.59 11.4379 189.835 11.2519 190.114 11.2519H201.568V9.27344H189.777C189.433 9.27344 189.154 8.9942 189.154 8.64974V5.7474H186.542ZM185.297 19.9594C185.297 19.6149 185.576 19.3357 185.919 19.3357H189.664C190.008 19.3357 190.287 19.6149 190.287 19.9594V23.5181H204.138C204.482 23.5181 204.761 23.7973 204.761 24.1418V27.4615C204.761 27.806 204.482 28.0852 204.138 28.0852H171.558C171.214 28.0852 170.935 27.806 170.935 27.4615V24.1418C170.935 23.7973 171.214 23.5181 171.558 23.5181H185.297V19.9594ZM186.542 20.5831V24.1418C186.542 24.4863 186.263 24.7655 185.919 24.7655H172.181V26.8378H203.516V24.7655H189.664C189.32 24.7655 189.042 24.4863 189.042 24.1418V20.5831H186.542ZM177.56 32.3542C176.324 32.7603 175.452 33.3242 174.891 33.9882C174.335 34.6462 174.053 35.4384 174.053 36.3704C174.053 37.2995 174.333 38.0667 174.89 38.7131C175.455 39.3698 176.338 39.9377 177.598 40.3929C180.899 41.4291 184.351 41.9002 187.809 41.7863C187.822 41.7858 187.836 41.7858 187.849 41.7862C191.308 41.8979 194.762 41.4325 198.068 40.4091C199.311 39.9934 200.191 39.4233 200.759 38.754C201.321 38.0924 201.606 37.3 201.606 36.3704C201.606 35.4423 201.322 34.6651 200.762 34.0131C200.195 33.3536 199.316 32.7877 198.074 32.3526C191.359 30.5139 184.275 30.5145 177.56 32.3542ZM177.217 31.1551C184.158 29.2504 191.482 29.2504 198.423 31.1551C198.437 31.1588 198.45 31.1629 198.463 31.1675C199.851 31.6504 200.95 32.3199 201.706 33.1996C202.471 34.0902 202.851 35.1604 202.851 36.3704C202.851 37.579 202.472 38.6621 201.708 39.5618C200.952 40.4527 199.85 41.129 198.456 41.5947L198.443 41.5988C195.009 42.6625 191.422 43.1474 187.83 43.0336C184.234 43.1499 180.645 42.6582 177.213 41.5793C177.205 41.5767 177.197 41.574 177.189 41.5712C175.798 41.0705 174.699 40.4022 173.946 39.5277C173.183 38.6408 172.808 37.5794 172.808 36.3704C172.808 35.1642 173.181 34.081 173.94 33.1823C174.693 32.2921 175.792 31.62 177.188 31.1637C177.197 31.1606 177.207 31.1577 177.217 31.1551ZM180.19 33.5812C185.216 32.6607 190.368 32.6607 195.394 33.5812C195.398 33.582 195.403 33.5829 195.408 33.5839C195.411 33.5847 195.415 33.5855 195.419 33.5864C196.446 33.8192 197.281 34.1338 197.873 34.5686C198.489 35.0205 198.863 35.6241 198.863 36.3704C198.863 37.1161 198.489 37.7201 197.875 38.1702C197.285 38.6034 196.452 38.9131 195.434 39.1366C195.396 39.1449 195.357 39.1496 195.319 39.1508C190.309 40.0307 185.184 40.0276 180.175 39.1415C180.17 39.1406 180.165 39.1397 180.16 39.1387C180.157 39.138 180.154 39.1373 180.15 39.1366C179.129 38.9125 178.297 38.5975 177.707 38.162C177.097 37.7116 176.721 37.1088 176.721 36.3704C176.721 35.609 177.149 35.0097 177.758 34.5719C178.357 34.1414 179.184 33.822 180.157 33.5882C180.168 33.5856 180.179 33.5832 180.19 33.5812ZM180.431 34.8051C179.54 35.0209 178.894 35.2908 178.484 35.5853C178.082 35.8743 177.966 36.1378 177.966 36.3704C177.966 36.626 178.077 36.886 178.446 37.1578C178.832 37.4431 179.466 37.7084 180.404 37.9154C185.284 38.777 190.276 38.7762 195.155 37.9131C195.179 37.9089 195.203 37.906 195.228 37.9046C196.142 37.6989 196.76 37.4418 197.14 37.1636C197.504 36.8962 197.617 36.6375 197.617 36.3704C197.617 36.1039 197.505 35.8448 197.137 35.5745C196.748 35.2885 196.108 35.0227 195.157 34.8059C190.288 33.9159 185.299 33.9156 180.431 34.8051Z" fill="#010A1A"/>
<path d="M239.377 33.2006H225.016V43.1411H221.121V33.1818H206.797V29.2432H239.377V33.2006ZM237.093 24.9483H209.006V7.5995H237.093V24.9483ZM233.348 11.4442H212.826V21.1221H233.311L233.348 11.4442Z" fill="#010A1A"/>
<path fill-rule="evenodd" clip-rule="evenodd" d="M208.384 7.5995C208.384 7.25504 208.662 6.9758 209.006 6.9758H237.093C237.437 6.9758 237.716 7.25504 237.716 7.5995V24.9483C237.716 25.2928 237.437 25.572 237.093 25.572H209.006C208.662 25.572 208.384 25.2928 208.384 24.9483V7.5995ZM209.629 8.2232V24.3246H236.47V8.2232H209.629ZM212.203 11.4442C212.203 11.0998 212.482 10.8205 212.826 10.8205H233.348C233.514 10.8205 233.672 10.8866 233.789 11.0041C233.906 11.1216 233.971 11.2808 233.971 11.4467L233.933 21.1245C233.932 21.4681 233.653 21.7458 233.311 21.7458H212.826C212.482 21.7458 212.203 21.4666 212.203 21.1221V11.4442ZM213.449 12.0679V20.4984H232.69L232.723 12.0679H213.449ZM206.174 29.2432C206.174 28.8987 206.453 28.6195 206.797 28.6195H239.377C239.721 28.6195 240 28.8987 240 29.2432V33.2006C240 33.545 239.721 33.8243 239.377 33.8243H225.638V43.1411C225.638 43.4855 225.359 43.7648 225.016 43.7648H221.121C220.777 43.7648 220.498 43.4855 220.498 43.1411V33.8055H206.797C206.453 33.8055 206.174 33.5262 206.174 33.1818V29.2432ZM207.419 29.8669V32.5581H221.121C221.465 32.5581 221.744 32.8373 221.744 33.1818V42.5174H224.393V33.2006C224.393 32.8561 224.672 32.5769 225.016 32.5769H238.755V29.8669H207.419Z" fill="#010A1A"/>
</svg>
